<svg xmlns="http://www.w3.org/2000/svg" xmlns:xlink="http://www.w3.org/1999/xlink" version="1.1" width="159.86956523541915" height="23.391304293742508" enable-background="new 0 0 172.922 42" xml:space="preserve" style=""><rect id="backgroundrect" width="100%" height="100%" x="0" y="0" fill="none" stroke="none" class="" style=""/>









<g class="currentLayer" style=""><title>Layer 1</title><path fill="#234463" d="M4.0278258848190305,4.554782624244689 v0.912 c0,0.811 -0.35500000000000015,1.2690000000000001 -1.267,1.2690000000000001 c-0.913,0 -1.267,-0.458 -1.267,-1.2690000000000001 v-3.4450000000000003 h12.514 v3.4450000000000003 c0,0.811 -0.35400000000000015,1.2690000000000001 -1.267,1.2690000000000001 c-0.912,0 -1.267,-0.458 -1.267,-1.2690000000000001 V4.554782624244689 h-2.457 v15.91 c0,0.811 -0.35500000000000015,1.267 -1.268,1.267 c-0.912,0 -1.267,-0.456 -1.267,-1.267 V4.554782624244689 H4.0278258848190305 z" id="svg_1" class=""/><path fill="#36A9E1" d="M33.64282588481903,9.357782624244692 l-2.218,-4.415 l-0.31700000000000017,-0.6340000000000003 c-0.29600000000000015,-0.5700000000000003 -0.6760000000000006,-1.056 -1.141,-1.415 c-0.528,-0.42200000000000015 -1.183,-0.6760000000000006 -1.9220000000000002,-0.6760000000000006 c-1.415,0 -2.45,0.8870000000000003 -3.063,2.091 L22.447825884819032,9.357782624244692 c-0.48600000000000015,0.972 -0.6550000000000004,1.711 -0.6550000000000004,2.809 c0,1.204 0.31700000000000017,1.964 0.8240000000000003,2.999 l2.345,4.668 c0.5910000000000003,1.225 1.605,2.112 3.084,2.112 c0.7390000000000003,0 1.352,-0.21100000000000008 1.859,-0.5920000000000003 c-0.48600000000000015,-0.38000000000000017 -0.8660000000000003,-0.8870000000000003 -1.162,-1.457 l-0.29600000000000015,-0.6130000000000003 c-0.10600000000000002,0.08400000000000005 -0.232,0.127 -0.401,0.127 c-0.507,0 -0.6970000000000006,-0.42200000000000015 -0.8660000000000003,-0.7600000000000003 l-2.4290000000000003,-4.816 c-0.275,-0.5700000000000003 -0.42200000000000015,-1.014 -0.42200000000000015,-1.669 c0,-0.8450000000000003 0.19000000000000009,-1.331 0.5700000000000003,-2.049 l2.281,-4.605 c0.21100000000000008,-0.401 0.3380000000000003,-0.7600000000000003 0.8660000000000003,-0.7600000000000003 c0.19000000000000009,0 0.3380000000000003,0.04200000000000002 0.4440000000000002,0.14800000000000008 c0.19000000000000009,0.127 0.29600000000000015,0.35900000000000015 0.42200000000000015,0.6130000000000003 l1.035,2.112 l1.246,2.493 c0.38000000000000017,0.7180000000000003 0.5700000000000003,1.204 0.5700000000000003,2.049 c0,0.6550000000000004 -0.14800000000000008,1.098 -0.42200000000000015,1.669 l-1.415,2.809 l1.035,2.049 c0.127,0.232 0.232,0.48600000000000015 0.4440000000000002,0.6130000000000003 l2.07,-4.14 c0.48600000000000015,-1.035 0.8240000000000003,-1.795 0.8240000000000003,-2.999 C34.297825884819034,11.067782624244689 34.12882588481903,10.328782624244688 33.64282588481903,9.357782624244692 z" id="svg_2" class=""/><path fill="#234463" d="M37.42382588481903,9.39978262424469 l-2.535,-5.027 c-0.5910000000000003,-1.204 -1.6480000000000001,-2.091 -3.063,-2.091 c-0.7180000000000003,0 -1.331,0.232 -1.859,0.6130000000000003 c-0.507,0.35900000000000015 -0.908,0.8870000000000003 -1.204,1.479 l-0.275,0.528 l-2.26,4.499 c-0.48600000000000015,0.993 -0.6550000000000004,1.7320000000000002 -0.6550000000000004,2.809 c0,1.225 0.3380000000000003,1.986 0.8450000000000003,3.021 l2.028,4.056 c0.21100000000000008,-0.14800000000000008 0.3380000000000003,-0.401 0.465,-0.6340000000000003 l1.014,-2.007 l-1.3940000000000001,-2.746 c-0.275,-0.5700000000000003 -0.42200000000000015,-1.014 -0.42200000000000015,-1.6900000000000006 c0,-0.8240000000000003 0.21100000000000008,-1.31 0.5910000000000003,-2.049 l1.246,-2.535 l1.014,-2.049 c0.14800000000000008,-0.275 0.253,-0.528 0.465,-0.6340000000000003 c0.10600000000000002,-0.08500000000000005 0.232,-0.127 0.401,-0.127 c0.528,0 0.6550000000000004,0.35900000000000015 0.8660000000000003,0.7600000000000003 l2.281,4.584 c0.38000000000000017,0.7390000000000003 0.5910000000000003,1.225 0.5910000000000003,2.049 c0,0.6760000000000006 -0.16900000000000012,1.119 -0.4440000000000002,1.6900000000000006 l-2.4290000000000003,4.795 c-0.16900000000000012,0.35900000000000015 -0.35900000000000015,0.7610000000000003 -0.8660000000000003,0.7610000000000003 c-0.16900000000000012,0 -0.31700000000000017,-0.04200000000000002 -0.42200000000000015,-0.14800000000000008 L31.129825884819027,19.83478262424469 c-0.31700000000000017,0.6130000000000003 -0.7180000000000003,1.141 -1.225,1.521 c0.528,0.401 1.162,0.6340000000000003 1.9220000000000002,0.6340000000000003 c1.479,0 2.493,-0.8870000000000003 3.105,-2.091 l2.323,-4.668 c0.507,-1.035 0.8240000000000003,-1.796 0.8240000000000003,-3.021 C38.07882588481903,11.13178262424469 37.90982588481903,10.392782624244688 37.42382588481903,9.39978262424469 z" id="svg_3" class=""/><path fill="#36A9E1" d="M31.403825884819028,19.30678262424469 L31.129825884819027,19.83478262424469 c-0.31700000000000017,0.6130000000000003 -0.7180000000000003,1.141 -1.225,1.521 c-0.48600000000000015,-0.38000000000000017 -0.8660000000000003,-0.8870000000000003 -1.162,-1.457 l-0.29600000000000015,-0.6130000000000003 c0.21100000000000008,-0.14800000000000008 0.3380000000000003,-0.401 0.465,-0.6340000000000003 l1.014,-2.007 l1.035,2.049 C31.086825884819028,18.92578262424469 31.19282588481903,19.17978262424469 31.403825884819028,19.30678262424469 z" id="svg_4" class=""/><path fill="#234463" d="M52.187825884819034,20.46478262424469 c0,0.811 -0.35500000000000015,1.267 -1.267,1.267 c-0.913,0 -1.267,-0.456 -1.267,-1.267 V2.0207826242446902 h8.41 c1.165,0 2.002,0.17700000000000007 2.914,1.04 c1.089,1.013 1.19,1.949 1.19,3.319 v3.4450000000000003 c0,1.291 -0.101,2.203 -1.039,3.243 c-0.988,1.114 -2.027,1.215 -3.394,1.215 H52.187825884819034 V20.46478262424469 zM52.187825884819034,11.749782624244691 h5.6240000000000006 c1.494,0 1.824,-0.38000000000000017 1.824,-1.824 v-3.5460000000000003 c0,-1.444 -0.3290000000000002,-1.826 -1.824,-1.826 H52.187825884819034 V11.749782624244691 z" id="svg_5" class=""/><path fill="#234463" d="M84.98282588481904,17.42378262424469 c0,0.9630000000000003 0,1.572 -0.48100000000000015,2.432 c-0.8620000000000003,1.444 -2.129,1.875 -3.6990000000000007,1.875 h-1.47 c-1.419,0 -2.6350000000000002,-0.254 -3.547,-1.469 c-0.6330000000000003,-0.8370000000000003 -0.785,-1.545 -0.785,-2.56 v-3.6740000000000004 c0,-0.809 0.35500000000000015,-1.267 1.267,-1.267 c0.912,0 1.267,0.458 1.267,1.267 v3.294 c0,1.469 0.30400000000000016,1.875 1.799,1.875 h1.393 c1.063,0 1.722,-0.15300000000000008 1.722,-1.368 V3.2877826242446897 c0,-0.811 0.35500000000000015,-1.267 1.267,-1.267 c0.912,0 1.267,0.456 1.267,1.267 V17.42378262424469 z" id="svg_6" class=""/><path fill="#234463" d="M102.77882588481903,3.3147826242446907 c0.202,-0.6850000000000006 0.48200000000000015,-1.2930000000000001 1.292,-1.2930000000000001 c0.8350000000000003,0 1.1400000000000001,0.6330000000000003 1.3170000000000002,1.2930000000000001 l4.889,17.15 c0.17700000000000007,0.6090000000000003 -0.506,1.267 -1.216,1.267 c-0.785,0 -1.19,-0.6580000000000005 -1.368,-1.267 l-0.9380000000000003,-3.041 h-5.396 l-0.9620000000000003,3.041 c-0.17700000000000007,0.6090000000000003 -0.5830000000000003,1.267 -1.368,1.267 c-0.7100000000000003,0 -1.393,-0.6580000000000005 -1.216,-1.267 L102.77882588481903,3.3147826242446907 zM104.09582588481904,8.025782624244691 h-0.05100000000000003 l-1.976,6.865 h3.977 L104.09582588481904,8.025782624244691 z" id="svg_7" class=""/><path fill="#234463" d="M131.87482588481902,7.340782624244689 v-4.053 c0,-0.811 0.35500000000000015,-1.267 1.267,-1.267 c0.913,0 1.267,0.456 1.267,1.267 v4.004 c0,0.3280000000000002 -0.025000000000000015,0.6830000000000006 -0.15200000000000008,0.988 l-4.838,12.338000000000001 c-0.254,0.6330000000000003 -0.48200000000000015,1.114 -1.268,1.114 c-0.785,0 -1.013,-0.48100000000000015 -1.267,-1.114 l-4.838,-12.338000000000001 c-0.127,-0.30500000000000016 -0.15200000000000008,-0.6600000000000005 -0.15200000000000008,-0.988 v-4.004 c0,-0.811 0.35400000000000015,-1.267 1.267,-1.267 c0.912,0 1.267,0.456 1.267,1.267 v4.053 l3.723,9.679 L131.87482588481902,7.340782624244689 z" id="svg_8" class=""/><path fill="#234463" d="M150.93882588481904,3.3147826242446907 c0.202,-0.6850000000000006 0.48200000000000015,-1.2930000000000001 1.292,-1.2930000000000001 c0.8350000000000003,0 1.1400000000000001,0.6330000000000003 1.3170000000000002,1.2930000000000001 l4.889,17.15 c0.17700000000000007,0.6090000000000003 -0.506,1.267 -1.216,1.267 c-0.785,0 -1.19,-0.6580000000000005 -1.368,-1.267 l-0.9380000000000003,-3.041 h-5.396 l-0.9620000000000003,3.041 c-0.17700000000000007,0.6090000000000003 -0.5830000000000003,1.267 -1.368,1.267 c-0.7100000000000003,0 -1.393,-0.6580000000000005 -1.216,-1.267 L150.93882588481904,3.3147826242446907 zM152.25682588481902,8.025782624244691 h-0.05100000000000003 l-1.976,6.865 h3.977 L152.25682588481902,8.025782624244691 z" id="svg_9" class=""/></g></svg>